<svg width="27" height="27" fill="none" xmlns="http://www.w3.org/2000/svg"><path fill-rule="evenodd" clip-rule="evenodd" d="M5.4 0A5.4 5.4 0 000 5.4v16.2A5.4 5.4 0 005.4 27h16.2a5.4 5.4 0 005.4-5.4V5.4A5.4 5.4 0 0021.6 0H5.4zm1.967 6.766A1.968 1.968 0 005.4 8.731c0 1.084.882 1.966 1.967 1.966a1.968 1.968 0 001.966-1.966 1.968 1.968 0 00-1.966-1.965zm1.49 4.761H5.876a.24.24 0 00-.24.24v9.577c0 .132.107.24.24.24h2.98a.24.24 0 00.24-.24v-9.577a.24.24 0 00-.24-.24zm4.963.862c.537-.585 1.422-1.1 2.62-1.1 3.357 0 3.81 2.428 3.81 4.802v5.253a.24.24 0 01-.24.24h-2.975a.24.24 0 01-.24-.24v-4.656c0-1.304-.096-2.301-1.308-2.301-1.113 0-1.547.622-1.547 2.219v4.738a.24.24 0 01-.24.24h-2.974a.24.24 0 01-.24-.24v-9.577a.24.24 0 01.24-.24h2.855a.24.24 0 01.24.24v.622z" fill="#fff"/></svg>