<svg width="27" height="27" fill="none" xmlns="http://www.w3.org/2000/svg"><path fill-rule="evenodd" clip-rule="evenodd" d="M4 0a4 4 0 00-4 4v19a4 4 0 004 4h19a4 4 0 004-4V4a4 4 0 00-4-4H4zm11.449 5.4l2.1.003a.33.33 0 01.33.33v2.474a.33.33 0 01-.33.33h-1.415c-.976 0-1.154.38-1.154 1.13v1.558h2.47a.33.33 0 01.33.33v2.664a.33.33 0 01-.33.33h-2.47v6.72a.33.33 0 01-.33.331h-2.756a.33.33 0 01-.33-.33v-6.72H9.45a.33.33 0 01-.33-.331v-2.663a.33.33 0 01.33-.331h2.112V9.387c0-2.422 1.525-3.987 3.886-3.987z" fill="#fff"/></svg>