<svg width="27" height="27" viewBox="0 0 27 27" fill="none" xmlns="http://www.w3.org/2000/svg">
<path fill-rule="evenodd" clip-rule="evenodd" d="M4 0C1.79086 0 0 1.79086 0 4V23C0 25.2091 1.79086 27 4 27H23C25.2091 27 27 25.2091 27 23V4C27 1.79086 25.2091 0 23 0H4ZM15.4486 5.3999L17.5493 5.40327C17.7315 5.40361 17.8792 5.55141 17.8792 5.7336V8.20667C17.8792 8.38902 17.7313 8.53699 17.549 8.53699L16.1338 8.5375C15.1582 8.5375 14.9797 8.91771 14.9797 9.66668V11.2249H17.4502C17.5379 11.2249 17.6221 11.2598 17.684 11.3219C17.7458 11.3839 17.7807 11.4678 17.7807 11.5554L17.7797 14.2188C17.7797 14.4013 17.6319 14.5491 17.4494 14.5491H14.9797V21.2696C14.9797 21.4519 14.8319 21.5999 14.6494 21.5999H11.8936C11.711 21.5999 11.5632 21.4521 11.5632 21.2696V14.5491H9.45102C9.26867 14.5491 9.12069 14.4013 9.12069 14.2188V11.5554C9.12069 11.3729 9.2685 11.2249 9.45102 11.2249H11.5632V9.38675C11.5632 6.96474 13.0885 5.3999 15.4486 5.3999Z" fill="white"/>
</svg>
