<svg width="27" height="27" viewBox="0 0 27 27" fill="none" xmlns="http://www.w3.org/2000/svg">
<path fill-rule="evenodd" clip-rule="evenodd" d="M4 0C1.79086 0 0 1.79086 0 4V23C0 25.2091 1.79086 27 4 27H23C25.2091 27 27 25.2091 27 23V4C27 1.79086 25.2091 0 23 0H4ZM15.4486 5.4L17.5493 5.40337C17.7315 5.40371 17.8792 5.55151 17.8792 5.7337V8.20677C17.8792 8.38912 17.7313 8.53709 17.549 8.53709L16.1338 8.5376C15.1582 8.5376 14.9797 8.91781 14.9797 9.66678V11.225H17.4502C17.5379 11.225 17.6221 11.2599 17.684 11.3219C17.7458 11.384 17.7807 11.4679 17.7807 11.5555L17.7797 14.2189C17.7797 14.4014 17.6319 14.5492 17.4494 14.5492H14.9797V21.2697C14.9797 21.452 14.8319 21.6 14.6494 21.6H11.8936C11.711 21.6 11.5632 21.4522 11.5632 21.2697V14.5492H9.45102C9.26866 14.5492 9.12069 14.4014 9.12069 14.2189V11.5555C9.12069 11.373 9.2685 11.225 9.45102 11.225H11.5632V9.38684C11.5632 6.96484 13.0884 5.4 15.4486 5.4Z" fill="white"/>
</svg>
