<svg width="26" height="30" viewBox="0 0 26 30" fill="none" xmlns="http://www.w3.org/2000/svg">
<path d="M23.7035 8.00013L2.29646 7.99995C1.0336 7.99995 0 9.03258 0 10.2964L0 27.7024C0 28.9662 1.0336 29.9998 2.29646 29.9998L23.7035 30C24.9664 30 26 28.9684 26 27.7036V10.2966C26 9.03275 24.9664 8.00013 23.7035 8.00013ZM24 25.9998L2 25.9997V9.99994L24 10.0001V25.9998Z" fill="#343434"/>
<rect x="8" width="29.9998" height="2" transform="rotate(90 8 0)" fill="#343434"/>
<rect x="26" width="9.99994" height="2" transform="rotate(90 26 0)" fill="#343434"/>
<rect x="6" width="18" height="1.99999" fill="#343434"/>
<rect x="6" y="3.99997" width="18" height="1.99999" fill="#343434"/>
<rect x="10" y="17.9999" width="2" height="1.99999" fill="#343434"/>
<rect x="14" y="17.9999" width="2" height="1.99999" fill="#343434"/>
<rect x="18" y="17.9999" width="2" height="1.99999" fill="#343434"/>
<rect x="10" y="13.9999" width="2" height="1.99999" fill="#343434"/>
<rect x="14" y="13.9999" width="2" height="1.99999" fill="#343434"/>
<rect x="18" y="13.9999" width="2" height="1.99999" fill="#343434"/>
<rect x="10" y="21.9999" width="2" height="1.99999" fill="#343434"/>
<rect x="14" y="21.9999" width="2" height="1.99999" fill="#343434"/>
<rect x="18" y="21.9999" width="2" height="1.99999" fill="#343434"/>
</svg>
