<svg width="26" height="22" viewBox="0 0 26 22" fill="none" xmlns="http://www.w3.org/2000/svg">
<path d="M23.7035 0.000173567L2.29646 0C1.0336 0 0 1.03262 0 2.29644L0 19.7024C0 20.9662 1.0336 21.9998 2.29646 21.9998L23.7035 22C24.9664 22 26 20.9684 26 19.7036V2.29661C26 1.03279 24.9664 0.000173567 23.7035 0.000173567ZM24 17.9999L2 17.9997V1.99998L24 2.00016V17.9999Z" fill="#343434"/>
<line y1="-0.5" x2="14.4222" y2="-0.5" transform="matrix(-0.832052 0.554697 -0.554703 -0.832048 24 1.99997)" stroke="#343434"/>
<line y1="-0.5" x2="14.4222" y2="-0.5" transform="matrix(0.832052 0.554697 0.554703 -0.832048 2 1.99997)" stroke="#343434"/>
</svg>
