<svg width="27" height="27" viewBox="0 0 27 27" fill="none" xmlns="http://www.w3.org/2000/svg">
<path fill-rule="evenodd" clip-rule="evenodd" d="M5.4 0C2.41762 0 0 2.41766 0 5.4V21.6C0 24.5823 2.41762 27 5.4 27H21.6C24.5824 27 27 24.5823 27 21.6V5.4C27 2.41766 24.5824 0 21.6 0H5.4ZM7.36716 6.76631C6.28248 6.76631 5.4 7.64783 5.4 8.73136C5.4 9.81535 6.28248 10.6972 7.36716 10.6972C8.45101 10.6972 9.33283 9.81532 9.33283 8.73136C9.33283 7.64783 8.4511 6.76631 7.36716 6.76631ZM8.85666 11.5274H5.87552C5.74327 11.5274 5.63607 11.6346 5.63607 11.7669V21.3441C5.63607 21.4764 5.74327 21.5836 5.87552 21.5836H8.85666C8.98899 21.5836 9.09619 21.4764 9.09619 21.3441V11.7669C9.09619 11.6346 8.98899 11.5274 8.85666 11.5274ZM13.8202 12.3889C14.357 11.8041 15.2421 11.2893 16.4395 11.2893C19.7973 11.2893 20.25 13.7166 20.25 16.0909V21.3442C20.25 21.4765 20.1428 21.5837 20.0105 21.5837H17.0348C16.9024 21.5837 16.7952 21.4765 16.7952 21.3442V16.6878C16.7952 15.384 16.6989 14.3868 15.4867 14.3868C14.3736 14.3868 13.9398 15.0089 13.9398 16.6056V21.3441C13.9398 21.4764 13.8326 21.5836 13.7003 21.5836H10.7257C10.5933 21.5836 10.4861 21.4764 10.4861 21.3441V11.7669C10.4861 11.6346 10.5933 11.5274 10.7257 11.5274H13.5807C13.713 11.5274 13.8202 11.6346 13.8202 11.7669V12.3889Z" fill="white"/>
</svg>
