<svg width="51" height="58" viewBox="0 0 51 58" fill="none" xmlns="http://www.w3.org/2000/svg">
<g clip-path="url(#clip0)">
<path d="M43.4501 12.187L42.6791 11.416L32.5841 1.321L31.8131 0.55C31.4641 0.201 30.9801 0 30.4851 0L2.463 0C1.277 0 0 0.916 0 2.926V39V55.537V56C0 56.837 0.842 57.653 1.838 57.91C1.888 57.923 1.936 57.942 1.988 57.952C2.144 57.983 2.303 58 2.463 58H41.5371C41.6971 58 41.8561 57.983 42.0121 57.952C42.0641 57.942 42.1121 57.923 42.1621 57.91C43.1581 57.653 44.0001 56.837 44.0001 56V55.537V39V13.978C44.0001 13.211 43.9081 12.645 43.4501 12.187ZM40.4351 12H32.0001V3.565L40.4351 12ZM2.463 56C2.392 56 2.328 55.974 2.265 55.951C2.109 55.877 2 55.721 2 55.537V41H42.0001V55.537C42.0001 55.721 41.8911 55.876 41.7351 55.951C41.6721 55.974 41.6081 56 41.5371 56H2.463ZM2 39V2.926C2 2.709 2.033 2 2.463 2H30.0581C30.0251 2.126 30.0001 2.256 30.0001 2.391V14H41.6091C41.7441 14 41.8731 13.975 41.9991 13.942C41.9991 13.957 42.0001 13.963 42.0001 13.978V39H2Z" fill="black"/>
<path d="M15.0421 44.744C14.7091 44.471 14.3331 44.265 13.9141 44.129C13.4951 43.992 13.0711 43.924 12.6431 43.924H9.74512V54H11.3861V50.363H12.6031C13.1311 50.363 13.6151 50.286 14.0521 50.131C14.4891 49.976 14.8631 49.757 15.1731 49.475C15.4831 49.193 15.7241 48.844 15.8981 48.429C16.0711 48.014 16.1581 47.552 16.1581 47.041C16.1581 46.558 16.0551 46.123 15.8501 45.735C15.6451 45.347 15.3751 45.018 15.0421 44.744ZM14.4201 48.073C14.3191 48.351 14.1881 48.567 14.0241 48.722C13.8601 48.877 13.6801 48.989 13.4841 49.057C13.2881 49.125 13.0891 49.16 12.8891 49.16H11.3851V45.168H12.6151C13.0341 45.168 13.3711 45.234 13.6271 45.366C13.8821 45.498 14.0801 45.662 14.2221 45.858C14.3631 46.054 14.4561 46.259 14.5021 46.473C14.5471 46.687 14.5701 46.876 14.5701 47.04C14.5701 47.451 14.5201 47.795 14.4201 48.073Z" fill="black"/>
<path d="M24.954 45.4C24.53 44.954 23.997 44.595 23.354 44.327C22.711 44.059 21.966 43.924 21.119 43.924H18.084V54H21.898C22.025 54 22.221 53.984 22.486 53.952C22.75 53.92 23.042 53.848 23.361 53.733C23.68 53.619 24.01 53.448 24.352 53.22C24.694 52.992 25.001 52.68 25.275 52.283C25.549 51.886 25.774 51.394 25.952 50.806C26.13 50.218 26.219 49.509 26.219 48.68C26.219 48.078 26.114 47.492 25.905 46.923C25.694 46.355 25.378 45.847 24.954 45.4ZM23.758 51.73C23.266 52.441 22.464 52.796 21.352 52.796H19.725V45.167H20.682C21.466 45.167 22.104 45.27 22.596 45.475C23.088 45.68 23.478 45.949 23.765 46.282C24.052 46.615 24.245 46.986 24.346 47.396C24.446 47.806 24.496 48.221 24.496 48.64C24.496 49.989 24.25 51.02 23.758 51.73Z" fill="black"/>
<path d="M28.5981 54H30.2661V49.461H34.4771V48.34H30.2661V45.168H34.9001V43.924H28.5981V54Z" fill="black"/>
<path d="M31.4282 22.961C30.5092 22.961 29.3812 23.081 28.0702 23.319C26.2402 21.377 24.3302 18.541 22.9822 15.757C24.3192 10.128 23.6502 9.33101 23.3552 8.95501C23.0412 8.55501 22.5982 7.90601 22.0942 7.90601C21.8832 7.90601 21.3072 8.00201 21.0782 8.07801C20.5022 8.27001 20.1922 8.71401 19.9442 9.29301C19.2372 10.946 20.2072 13.764 21.2052 15.936C20.3522 19.329 18.9212 23.39 17.4172 26.686C13.6272 28.422 11.6142 30.127 11.4322 31.754C11.3662 32.346 11.5062 33.215 12.5472 33.996C12.8322 34.209 13.1662 34.322 13.5142 34.322C14.3892 34.322 15.2732 33.652 16.2962 32.215C17.0422 31.167 17.8432 29.738 18.6792 27.964C21.3572 26.793 24.6702 25.735 27.5072 25.142C29.0872 26.659 30.5022 27.427 31.7182 27.427C32.6142 27.427 33.3822 27.015 33.9382 26.236C34.5172 25.425 34.6492 24.699 34.3282 24.076C33.9432 23.327 32.9942 22.961 31.4282 22.961ZM13.5362 32.634C13.0682 32.275 13.0952 32.033 13.1052 31.942C13.1672 31.386 14.0382 30.399 16.1752 29.198C14.5552 32.19 13.6852 32.587 13.5362 32.634ZM21.7362 9.71201C21.7792 9.69801 22.7812 10.813 21.8322 12.928C20.4062 11.469 21.6382 9.74501 21.7362 9.71201ZM19.6692 25.738C20.6842 23.319 21.6282 20.648 22.3432 18.174C23.4662 20.192 24.8152 22.15 26.1652 23.718C24.0312 24.219 21.7592 24.926 19.6692 25.738ZM32.5702 25.259C32.2622 25.69 31.5942 25.7 31.3602 25.7C30.8272 25.7 30.6282 25.383 29.8132 24.756C30.4852 24.67 31.1192 24.648 31.6242 24.648C32.5132 24.648 32.6762 24.779 32.7992 24.845C32.7772 24.916 32.7192 25.05 32.5702 25.259Z" fill="black"/>
</g>
<defs>
<clipPath id="clip0">
<rect width="51" height="58" fill="white"/>
</clipPath>
</defs>
</svg>
